<svg width="153" height="108" viewBox="0 0 153 108" fill="none" xmlns="http://www.w3.org/2000/svg">
<path d="M52.0388 107.299H12.1369C7.11659 107.299 3.04688 102.942 3.04688 97.5677V25.4322C3.04688 20.0579 7.11659 15.7012 12.1369 15.7012H119.488C124.508 15.7012 128.578 20.0579 128.578 25.4322V97.5674C128.578 102.942 124.508 107.298 119.488 107.298H79.5865" fill="#B8ECBC"/>
<path d="M98.2636 56.1485H115.172V48.0408C105.892 48.0408 98.3687 39.9873 98.3687 30.0528H33.2563C33.2563 39.9873 25.7333 48.0408 16.4531 48.0408V74.9588C25.7333 74.9588 33.2563 83.0123 33.2563 92.9468H98.2636V56.1485Z" fill="#A0E5A5"/>
<path d="M65.8125 80.2375C75.4793 80.2375 83.3158 71.8484 83.3158 61.5C83.3158 51.1515 75.4793 42.7624 65.8125 42.7624C56.1456 42.7624 48.3091 51.1515 48.3091 61.5C48.3091 71.8484 56.1456 80.2375 65.8125 80.2375Z" fill="#FAF7F5"/>
<path d="M98.2635 90.2484H152.953V107.298H98.2635V90.2484Z" fill="#FFF2A0"/>
<path d="M98.2635 73.1985H152.953V90.2484H98.2635V73.1985Z" fill="#FFF7BF"/>
<path d="M98.2635 56.1485H152.953V73.1984H98.2635V56.1485Z" fill="#FFF2A0"/>
<path d="M62.3618 99.0415C61.0897 99.0415 59.9288 98.1632 59.4971 96.8839C59.0657 95.6057 59.4441 94.1206 60.4291 93.2592C61.4453 92.3704 62.9102 92.2862 64.0138 93.0403C65.0467 93.7461 65.5896 95.104 65.3569 96.3914C65.0817 97.9107 63.8087 99.0415 62.3618 99.0415Z" fill="black"/>
<path d="M149.448 41.3688H128.119V13.9146C128.119 6.75023 122.675 0.921539 115.982 0.921539H8.63131C1.93915 0.921539 -3.50562 6.75023 -3.50562 13.9146V86.0498C-3.50562 93.2141 1.93915 99.0425 8.63131 99.0425H48.5332C50.216 99.0425 51.5801 97.5819 51.5801 95.7808C51.5801 93.9797 50.216 92.5191 48.5332 92.5191H8.63131C5.29894 92.5191 2.58813 89.6171 2.58813 86.0498V13.9146C2.58813 10.3469 5.29894 7.44498 8.63131 7.44498H115.982C119.315 7.44498 122.026 10.3473 122.026 13.9146V41.3688H114.713V36.5229C114.713 34.7217 113.349 33.2611 111.666 33.2611C104.081 33.2611 97.9099 26.6549 97.9099 18.5348C97.9099 16.7337 96.5458 15.2731 94.8631 15.2731H29.7507C28.0679 15.2731 26.7038 16.7337 26.7038 18.5348C26.7038 26.6552 20.5327 33.2611 12.9475 33.2611C11.2647 33.2611 9.90063 34.7217 9.90063 36.5229V63.4409C9.90063 65.242 11.2647 66.7026 12.9475 66.7026C20.5327 66.7026 26.7038 73.3089 26.7038 81.4289C26.7038 83.23 28.0679 84.6906 29.7507 84.6906H91.7111V92.5187H76.0806C74.3978 92.5187 73.0337 93.9793 73.0337 95.7805C73.0337 97.5816 74.3978 99.0422 76.0806 99.0422H149.448C151.13 99.0422 152.494 97.5816 152.494 95.7805V44.6302C152.494 42.8291 151.13 41.3688 149.448 41.3688ZM97.8048 64.9422H146.401V75.4688H97.8048V64.9422ZM146.401 58.4188H97.8048V47.8922H146.401V58.4188ZM15.9944 60.4293V39.5347C24.5043 38.1254 31.2473 30.9068 32.5642 21.7965H92.0496C93.3664 30.9068 100.109 38.1254 108.619 39.5347V41.3688H94.7579C93.0751 41.3688 91.7111 42.8291 91.7111 44.6305V78.1675H32.5642C31.2473 69.0572 24.5043 61.839 15.9944 60.4293V60.4293ZM146.401 92.5191H97.8048V81.9925H146.401V92.5191Z" fill="black"/>
<path d="M62.3069 71.9813C50.9756 71.9813 41.7567 62.1123 41.7567 49.982C41.7567 37.8517 50.9756 27.9827 62.3069 27.9827C73.6382 27.9827 82.8572 37.8517 82.8572 49.982C82.8572 62.1123 73.6382 71.9813 62.3069 71.9813ZM62.3069 34.5061C54.3357 34.5061 47.8504 41.4487 47.8504 49.982C47.8504 58.5153 54.3357 65.4579 62.3069 65.4579C70.2781 65.4579 76.7634 58.5153 76.7634 49.982C76.7634 41.4487 70.2781 34.5061 62.3069 34.5061Z" fill="black"/>
</svg>
