<svg width="307" height="255" viewBox="0 0 307 255" fill="none" xmlns="http://www.w3.org/2000/svg">
<g clip-path="url(#clip0)">
<path d="M62.3594 135.469V18.9258C62.3594 11.224 69.8761 4.98047 79.1484 4.98047H227.852C237.124 4.98047 244.641 11.224 244.641 18.9258V135.469H62.3594Z" fill="#F79D4A"/>
<path d="M301.004 102.598L248.079 70.7884H58.9218L5.99609 102.598L58.9218 134.407H248.079L301.004 102.598Z" fill="#657FC9"/>
<path d="M243.741 31.875H62.3594V176.309H243.741V31.875Z" fill="white"/>
<path d="M5.99609 102.598V250.02H301.004V102.598L155.949 191.978L5.99609 102.598Z" fill="#34BFE0"/>
<path d="M5.99609 250.02H301.004L153.5 161.367L5.99609 250.02Z" fill="#8CCEEA"/>
<path d="M306.994 102.598C306.995 101.585 306.631 100.562 305.861 99.6781C305.477 99.2373 305.02 98.8668 304.517 98.5645C304.518 98.564 304.518 98.5635 304.519 98.563L251.593 66.7537C251.287 66.5699 250.966 66.417 250.636 66.287V18.9258C250.636 8.49021 240.415 0 227.851 0H79.1484C66.5848 0 56.3633 8.49021 56.3633 18.9258V66.287C56.0335 66.4165 55.7127 66.5694 55.4063 66.7532L2.48118 98.5625C2.48178 98.563 2.48238 98.5635 2.48238 98.564C1.97931 98.8663 1.52241 99.2368 1.13806 99.6776C0.36816 100.562 0.00419727 101.585 0.00539648 102.598C0.00359766 102.598 0.00179883 102.598 0 102.598V250.02C0 252.77 2.68445 255 5.99609 255H301.004C301.091 255 301.17 254.996 301.243 254.99C304.443 254.885 307 252.703 307 250.02V102.598C306.998 102.598 306.996 102.598 306.994 102.598ZM188.589 176.309L295.008 112.349V240.268L188.589 176.309ZM11.9922 112.349L118.411 176.309L11.9922 240.268V112.349ZM290.775 102.598L250.637 126.722V78.4738L290.775 102.598ZM79.1484 9.96094H227.852C233.803 9.96094 238.645 13.9827 238.645 18.9258V26.8945H112.427C109.115 26.8945 106.431 29.1243 106.431 31.875C106.431 34.6257 109.115 36.8555 112.427 36.8555H238.645V133.929L178.36 170.161L157.015 157.333C154.917 156.072 152.083 156.072 149.984 157.333L128.64 170.161L68.3555 133.929V18.9258C68.3555 13.9827 73.1973 9.96094 79.1484 9.96094ZM56.3633 78.4738V126.722L16.2248 102.598L56.3633 78.4738ZM24.5114 245.039L153.5 167.515L204.593 198.223H176.781C173.469 198.223 170.785 200.452 170.785 203.203C170.785 205.954 173.469 208.184 176.781 208.184H221.106C221.125 208.184 221.144 208.182 221.163 208.181L237.74 218.145H149.703C146.391 218.145 143.707 220.374 143.707 223.125C143.707 225.876 146.391 228.105 149.703 228.105H254.314L282.489 245.039H24.5114Z" fill="black"/>
<path d="M124.119 218.145C122.542 218.145 120.995 218.677 119.88 219.604C118.765 220.53 118.123 221.815 118.123 223.125C118.123 224.435 118.765 225.72 119.88 226.646C120.995 227.573 122.542 228.105 124.119 228.105C125.696 228.105 127.243 227.573 128.358 226.646C129.474 225.72 130.115 224.435 130.115 223.125C130.115 221.815 129.474 220.53 128.358 219.604C127.243 218.677 125.696 218.145 124.119 218.145Z" fill="black"/>
<path d="M87.85 36.8555H87.9027C91.2144 36.8555 93.8724 34.6257 93.8724 31.875C93.8724 29.1243 91.1616 26.8945 87.85 26.8945C84.5383 26.8945 81.8539 29.1243 81.8539 31.875C81.8539 34.6257 84.5383 36.8555 87.85 36.8555Z" fill="black"/>
<path d="M153.484 122.548H182.581C185.893 122.548 188.577 120.318 188.577 117.567C188.577 114.817 185.893 112.587 182.581 112.587H153.484C134.971 112.587 119.909 100.077 119.909 84.6988V84.1958C119.909 68.8181 134.971 56.3077 153.484 56.3077C171.997 56.3077 187.06 68.8181 187.06 84.1958V92.175C187.06 94.6423 184.643 96.6495 181.673 96.6495C178.702 96.6495 176.286 94.6423 176.286 92.175V83.1624C176.286 71.903 165.257 62.7424 151.702 62.7424C137.485 62.7424 125.919 72.3498 125.919 84.1585C125.919 95.9671 137.485 105.574 151.702 105.574H159.159C162.471 105.574 165.155 103.345 165.155 100.594C165.155 97.8433 162.471 95.6135 159.159 95.6135H151.701C144.097 95.6135 137.91 90.4747 137.91 84.1585C137.91 77.8422 144.097 72.7034 151.701 72.7034C158.645 72.7034 164.293 77.395 164.293 83.1624V92.175C164.293 100.135 172.089 106.61 181.672 106.61C191.255 106.61 199.051 100.135 199.051 92.175V84.1958C199.051 63.3257 178.61 46.3467 153.484 46.3467C128.358 46.3467 107.917 63.3257 107.917 84.1958V84.6988C107.917 105.569 128.358 122.548 153.484 122.548Z" fill="black"/>
<path d="M113.913 142.441H193.056C196.367 142.441 199.052 140.212 199.052 137.461C199.052 134.71 196.367 132.48 193.056 132.48H113.913C110.602 132.48 107.917 134.71 107.917 137.461C107.917 140.212 110.602 142.441 113.913 142.441Z" fill="black"/>
</g>
<defs>
<clipPath id="clip0">
<rect width="307" height="255" fill="white"/>
</clipPath>
</defs>
</svg>
