<svg width="313" height="295" viewBox="0 0 313 295" fill="none" xmlns="http://www.w3.org/2000/svg">
<path d="M156.5 0C70.2024 0 0 66.1652 0 147.5C0 228.835 70.2024 295 156.5 295C242.798 295 313 228.835 313 147.5C313 66.1652 242.798 0 156.5 0Z" fill="#B6CCDD"/>
<path d="M156.5 295C70.2024 295 0 228.835 0 147.5C0 66.1652 70.2024 0 156.5 0C242.798 0 313 66.1652 313 147.5C313 228.835 242.798 295 156.5 295ZM156.5 18.4375C80.989 18.4375 19.5625 76.3315 19.5625 147.5C19.5625 218.668 80.989 276.562 156.5 276.562C232.011 276.562 293.438 218.668 293.438 147.5C293.438 76.3315 232.011 18.4375 156.5 18.4375Z" fill="black"/>
<path d="M224.969 156.719H88.0312C82.632 156.719 78.25 152.589 78.25 147.5C78.25 142.411 82.632 138.281 88.0312 138.281H224.969C230.368 138.281 234.75 142.411 234.75 147.5C234.75 152.589 230.368 156.719 224.969 156.719Z" fill="black"/>
<path d="M156.5 221.25C151.101 221.25 146.719 217.12 146.719 212.031V82.9688C146.719 77.88 151.101 73.75 156.5 73.75C161.899 73.75 166.281 77.88 166.281 82.9688V212.031C166.281 217.12 161.899 221.25 156.5 221.25Z" fill="black"/>
</svg>
