<svg width="125" height="107" viewBox="0 0 125 107" fill="none" xmlns="http://www.w3.org/2000/svg">
<g clip-path="url(#clip0)">
<path d="M32.917 99.4547C31.8498 101.345 32.7758 103.619 34.9845 104.532C37.1932 105.445 39.8483 104.653 40.9154 102.763L45.7401 94.2146C42.983 93.2252 40.368 92.0023 37.9295 90.5753L32.917 99.4547Z" fill="#89E6FF"/>
<path d="M84.6091 102.763C85.6753 104.653 88.3313 105.445 90.54 104.532C92.7487 103.619 93.6747 101.345 92.6076 99.4547L87.595 90.5753C85.1565 92.0023 82.5415 93.2252 79.7835 94.2146L84.6091 102.763Z" fill="#89E6FF"/>
<path d="M62.7623 21.6904C38.4244 21.6904 18.6948 38.5781 18.6948 59.4113C18.6948 72.3594 26.3175 83.7817 37.9295 90.5745C40.368 92.0023 42.983 93.2252 45.741 94.2146C50.9777 96.093 56.7283 97.1331 62.7623 97.1331C68.7971 97.1331 74.5468 96.093 79.7844 94.2146C82.5415 93.2252 85.1565 92.0023 87.596 90.5745C99.207 83.7817 106.83 72.3594 106.83 59.4113C106.83 38.5781 87.1001 21.6904 62.7623 21.6904V21.6904ZM62.7623 86.6667C45.1774 86.6667 30.9228 74.4639 30.9228 59.4113C30.9228 44.3587 45.1774 32.1559 62.7623 32.1559C80.3471 32.1559 94.6017 44.3587 94.6017 59.4113C94.6017 74.4639 80.3471 86.6667 62.7623 86.6667V86.6667Z" fill="#6287F8"/>
<path d="M94.6026 59.4113C94.6026 74.4639 80.3471 86.6667 62.7623 86.6667C45.1774 86.6667 30.9219 74.4639 30.9219 59.4113C30.9219 44.3587 45.1774 32.1567 62.7623 32.1567C80.3471 32.1567 94.6026 44.3587 94.6026 59.4113V59.4113Z" fill="#D7D7E6"/>
<path d="M26.1382 4.27115C17.024 8.77575 13.9016 18.7515 19.163 26.5533C19.8754 27.6089 21.4519 27.9697 22.685 27.3607L51.2247 13.2559C52.4568 12.6469 52.8803 11.2974 52.1679 10.2419C46.9064 2.4409 35.2525 -0.232634 26.1382 4.27115Z" fill="#FF9150"/>
<path d="M99.227 4.27115C90.1127 -0.23264 78.4588 2.44008 73.1974 10.2419C72.4859 11.2974 72.9084 12.6469 74.1406 13.2559L102.68 27.3607C103.913 27.9697 105.49 27.608 106.201 26.5533C111.464 18.7515 108.34 8.77575 99.227 4.27115V4.27115Z" fill="#FF9150"/>
<path d="M28.4805 59.4113C28.4805 75.5921 43.8594 88.7565 62.7622 88.7565C81.6651 88.7565 97.0431 75.5921 97.0431 59.4113C97.0431 56.8496 96.6569 54.3058 95.8949 51.8527C95.5487 50.7368 94.2107 50.0731 92.908 50.3694C91.6043 50.6666 90.8289 51.8111 91.1761 52.927C91.8293 55.0299 92.1603 57.2112 92.1603 59.4113C92.1603 73.2875 78.9719 84.576 62.7622 84.576C46.5517 84.576 33.3642 73.2875 33.3642 59.4113C33.3642 45.5358 46.5517 34.2466 62.7622 34.2466C70.3506 34.2466 77.5538 36.7144 83.0441 41.1945C84.0206 41.9912 85.5656 41.9594 86.4964 41.1243C87.4272 40.2883 87.39 38.9659 86.4144 38.1691C80.0114 32.9437 71.6114 30.066 62.7622 30.066C43.8594 30.0669 28.4805 43.2305 28.4805 59.4113V59.4113Z" fill="black"/>
<path d="M101.46 29.1705C102.248 29.5599 103.109 29.7452 103.96 29.7452C105.697 29.7452 107.388 28.9746 108.316 27.5982C114.243 18.8111 110.713 7.53489 100.448 2.46129C90.1823 -2.61149 77.0092 0.410631 71.0821 9.19697C69.6983 11.2485 70.5223 13.882 72.9199 15.0657L85.3682 21.2185L83.5839 23.8202C77.3153 21.1222 70.2429 19.6005 62.7623 19.6005C55.232 19.6005 48.1157 21.1418 41.8167 23.8724L39.9961 21.2185L52.4444 15.0665C54.842 13.882 55.6659 11.2493 54.2822 9.19697C48.3551 0.410631 35.1819 -2.61149 24.9166 2.46211C19.9441 4.91931 16.3878 8.88758 14.902 13.6346C13.4152 18.3825 14.1782 23.341 17.0497 27.5982C17.9776 28.9754 19.6685 29.7452 21.4042 29.7452C22.2549 29.7452 23.117 29.5599 23.9057 29.1705L35.7675 23.3083L37.5823 25.9541C24.7592 33.0498 16.2534 45.3962 16.2534 59.4113C16.2534 72.4043 23.5633 83.9621 34.8462 91.2333L30.7187 98.5453C29.9196 99.9625 29.8118 101.562 30.4164 103.047C31.022 104.533 32.2665 105.729 33.9221 106.414C34.8844 106.812 35.902 107 36.9052 107C39.4649 107 41.9282 105.773 43.1146 103.672L46.9617 96.8555C51.897 98.3861 57.2176 99.2229 62.7623 99.2229C68.3079 99.2229 73.6284 98.3861 78.5637 96.8555L82.4108 103.672C83.5972 105.773 86.0586 107 88.6193 107C89.6225 107 90.6401 106.812 91.6024 106.414C93.2579 105.729 94.5034 104.533 95.1081 103.047C95.7127 101.562 95.6059 99.9625 94.8058 98.5453L90.6783 91.2333C101.961 83.9621 109.271 72.4043 109.271 59.4113C109.271 45.3538 100.716 32.9747 87.8277 25.8896L89.5977 23.3083L101.46 29.1705ZM75.3613 11.446C75.2964 11.4142 75.2745 11.3423 75.3117 11.2868C78.3854 6.72997 83.9815 4.17889 89.7274 4.17889C92.5436 4.17889 95.397 4.79196 98.0063 6.08179C105.94 10.0027 108.667 18.7172 104.087 25.5084C104.079 25.5198 104.059 25.55 104.005 25.5623C103.95 25.5753 103.914 25.5574 103.901 25.5509L75.3613 11.446ZM21.4643 25.5509C21.3985 25.5827 21.3155 25.5639 21.2773 25.5084C16.6978 18.7172 19.4253 10.0027 27.3589 6.08179C29.9682 4.79196 32.8206 4.17889 35.6378 4.17889C41.3827 4.17889 46.9799 6.72997 50.0536 11.2868C50.0908 11.3423 50.0688 11.4142 50.004 11.446C50.003 11.446 50.003 11.446 50.003 11.446L21.4643 25.5509ZM38.7172 101.854C38.2375 102.704 37.0397 103.061 36.0469 102.651C35.5653 102.452 35.2039 102.105 35.0284 101.672C34.852 101.241 34.8834 100.776 35.1161 100.364L38.9394 93.5901C40.0819 94.1762 41.2559 94.7224 42.4594 95.2236L38.7172 101.854ZM90.4084 100.364C90.6411 100.776 90.6716 101.24 90.4961 101.672C90.3206 102.104 89.9592 102.452 89.4776 102.651C88.4848 103.061 87.287 102.704 86.8073 101.854L83.0651 95.2236C84.2686 94.7224 85.4426 94.1762 86.5851 93.5901L90.4084 100.364ZM104.387 59.4113C104.387 70.7471 98.1713 80.8624 88.5048 87.3924C84.9085 89.8218 80.8344 91.7533 76.4256 93.0693C72.1436 94.346 67.5459 95.0432 62.7623 95.0432C57.9777 95.0432 53.38 94.346 49.098 93.0693C44.6891 91.7533 40.615 89.8218 37.0187 87.3924C27.3523 80.8624 21.1371 70.7471 21.1371 59.4113C21.1371 39.7643 39.8101 23.7802 62.7623 23.7802C70.034 23.7802 76.8747 25.3868 82.8295 28.2032C82.9516 28.2979 83.086 28.3836 83.2339 28.4579C83.395 28.5387 83.5638 28.5983 83.7355 28.6448C96.0789 34.8335 104.387 46.3065 104.387 59.4113V59.4113Z" fill="black"/>
<path d="M65.2037 41.3415V39.2834C65.2037 38.1291 64.1108 37.1936 62.7623 37.1936C61.4138 37.1936 60.3209 38.1291 60.3209 39.2834V41.3415C60.3209 42.495 61.4138 43.4313 62.7623 43.4313C64.1108 43.4313 65.2037 42.495 65.2037 41.3415Z" fill="black"/>
<path d="M60.3209 77.4819V79.5391C60.3209 80.6935 61.4138 81.6298 62.7623 81.6298C64.1108 81.6298 65.2037 80.6935 65.2037 79.5391V77.4819C65.2037 76.3276 64.1108 75.3921 62.7623 75.3921C61.4138 75.3921 60.3209 76.3276 60.3209 77.4819V77.4819Z" fill="black"/>
<path d="M86.2761 57.3214H83.8728C82.5243 57.3214 81.4305 58.2578 81.4305 59.4113C81.4305 60.5656 82.5243 61.5019 83.8728 61.5019H86.2761C87.6246 61.5019 88.7175 60.5656 88.7175 59.4113C88.7175 58.2578 87.6246 57.3214 86.2761 57.3214V57.3214Z" fill="black"/>
<path d="M39.2484 57.3214C37.8999 57.3214 36.807 58.2578 36.807 59.4113C36.807 60.5656 37.8999 61.5019 39.2484 61.5019H41.6517C43.0002 61.5019 44.0931 60.5656 44.0931 59.4113C44.0931 58.2578 43.0002 57.3214 41.6517 57.3214H39.2484Z" fill="black"/>
<path d="M72.5517 53.1164C71.7421 52.1931 70.2114 52.0062 69.1338 52.7001L62.9797 56.6577L49.8476 45.5497C48.8891 44.7383 47.3423 44.7456 46.3943 45.5669C45.4464 46.3881 45.4559 47.7114 46.4153 48.5228L61.0466 60.8987C61.5187 61.2979 62.1395 61.502 62.7632 61.502C63.2763 61.502 63.7922 61.364 64.229 61.0824L72.0663 56.043C73.1449 55.3491 73.3624 54.0389 72.5517 53.1164V53.1164Z" fill="black"/>
<path d="M88.8148 47.2754C88.9464 47.3505 89.0904 47.4159 89.2373 47.4681C89.3832 47.5203 89.5377 47.5595 89.6941 47.5873C89.8495 47.6142 90.0107 47.6265 90.17 47.6265C90.3283 47.6265 90.4895 47.6142 90.6487 47.5873C90.8042 47.5595 90.9587 47.5203 91.1046 47.4681C91.2514 47.4159 91.3926 47.3505 91.5271 47.2754C91.6587 47.1979 91.7836 47.1105 91.8961 47.0142C92.0106 46.9179 92.1107 46.8118 92.2013 46.6967C92.289 46.584 92.3644 46.4624 92.4254 46.3375C92.4865 46.2093 92.5332 46.0779 92.5647 45.9464C92.5961 45.8101 92.6114 45.6721 92.6114 45.5366C92.6114 45.4011 92.5961 45.2623 92.5647 45.1293C92.5332 44.9954 92.4865 44.8631 92.4254 44.7382C92.3644 44.6133 92.289 44.4892 92.2013 44.3766C92.1107 44.2615 92.0106 44.1554 91.8961 44.059C91.7836 43.9627 91.6587 43.8754 91.5271 43.8003C91.3926 43.7251 91.2514 43.6598 91.1046 43.6076C90.9577 43.5553 90.8042 43.5162 90.6487 43.4884C90.3331 43.4345 90.0088 43.4345 89.6941 43.4884C89.5377 43.5162 89.3832 43.5553 89.2373 43.6076C89.0904 43.6598 88.9464 43.7251 88.8148 43.8003C88.6803 43.8754 88.5554 43.9627 88.4438 44.059C88.3313 44.1554 88.2283 44.2615 88.1405 44.3766C88.0528 44.4892 87.9775 44.6133 87.9164 44.7382C87.8554 44.8631 87.8087 44.9954 87.7772 45.1293C87.7448 45.2631 87.7286 45.4011 87.7286 45.5366C87.7286 46.086 87.9899 46.6256 88.4438 47.0142C88.5564 47.1105 88.6803 47.1979 88.8148 47.2754V47.2754Z" fill="black"/>
</g>
<defs>
<clipPath id="clip0">
<rect width="125" height="107" fill="white"/>
</clipPath>
</defs>
</svg>
